# xmcd
#
# Track frame offsets: 
#        187
#        16460
#        31577
#        46907
#        63055
#        78340
#        92032
#        109597
#        126207
#        141927
#        159875
#
# Disc length: 2378 seconds
#
# Revision: 3
# Processed by: cddbd v1.5.2PL0 Copyright (c) Steve Scherf et al.
# Submitted via: ExactAudioCopy v1.0b1
#
DISCID=7b09480b
DTITLE=Alabama - Very Best Of Disc 2
DYEAR=1991
DGENRE=Country
TTITLE0=Jukebox In My Mind
TTITLE1=Down Home
TTITLE2=Can't Keep A Good Man Down
TTITLE3=Close Enough To Perfect
TTITLE4=Feels So Right
TTITLE5=Face To Face
TTITLE6=Mountain Music
TTITLE7=Take Me Down
TTITLE8=Forever's As Far As I'll Go
TTITLE9=Lady Down On Love
TTITLE10=Roll On (Eighteen Wheeler)
EXTD=
EXTT0=
EXTT1=
EXTT2=
EXTT3=
EXTT4=
EXTT5=
EXTT6=
EXTT7=
EXTT8=
EXTT9=
EXTT10=
PLAYORDER=
